<svg width="20" height="30" viewBox="0 0 25 25" fill="none" xmlns="http://www.w3.org/2000/svg">
<path d="M12.9917 8.29413C14.0917 8.29413 14.9917 7.39413 14.9917 6.29413C14.9917 5.19413 14.0917 4.29413 12.9917 4.29413C11.8917 4.29413 10.9917 5.19413 10.9917 6.29413C10.9917 7.39413 11.8917 8.29413 12.9917 8.29413ZM12.9917 10.2941C11.8917 10.2941 10.9917 11.1941 10.9917 12.2941C10.9917 13.3941 11.8917 14.2941 12.9917 14.2941C14.0917 14.2941 14.9917 13.3941 14.9917 12.2941C14.9917 11.1941 14.0917 10.2941 12.9917 10.2941ZM12.9917 16.2941C11.8917 16.2941 10.9917 17.1941 10.9917 18.2941C10.9917 19.3941 11.8917 20.2941 12.9917 20.2941C14.0917 20.2941 14.9917 19.3941 14.9917 18.2941C14.9917 17.1941 14.0917 16.2941 12.9917 16.2941Z" fill="#84818A"/>
</svg>
