<svg width="37" height="37" viewBox="0 0 37 37" fill="none" xmlns="http://www.w3.org/2000/svg">
<rect width="37" height="37" rx="3" fill="#CD7FAF"/>
<g clip-path="url(#clip0_535_19734)">
<path fill-rule="evenodd" clip-rule="evenodd" d="M11.4891 8.53711C14.5205 8.53711 16.9782 10.9948 16.9782 14.0262C16.9782 17.0576 14.5205 19.5153 11.4891 19.5153C8.45768 19.5153 6 17.0576 6 14.0262C6 10.9948 8.45768 8.53711 11.4891 8.53711ZM20.8763 8C22.2455 8 23.5537 8.27262 24.748 8.76701C25.987 9.2797 27.1019 10.0325 28.0357 10.9663C28.9675 11.8981 29.7203 13.013 30.233 14.2561C30.7274 15.4504 31 16.7585 31 18.1257C31 19.495 30.7274 20.8031 30.233 21.9974C29.7203 23.2364 28.9675 24.3513 28.0337 25.2852C27.1019 26.217 25.987 26.9697 24.7439 27.4824C23.5496 27.9768 22.2415 28.2494 20.8743 28.2494C19.505 28.2494 18.1969 27.9768 17.0026 27.4824C15.7636 26.9697 14.6487 26.217 13.7169 25.2852L13.7148 25.2831C12.781 24.3493 12.0303 23.2344 11.5176 21.9974C11.3589 21.6129 11.2226 21.2182 11.1107 20.8133C11.3223 20.8337 11.5379 20.8438 11.7556 20.8438C12.1686 20.8438 12.5715 20.8072 12.9641 20.736C13.0292 20.9313 13.1004 21.1246 13.1777 21.3138C13.5989 22.3311 14.2174 23.2466 14.9864 24.0156C15.7555 24.7847 16.673 25.4032 17.6882 25.8243C18.6668 26.2292 19.7431 26.455 20.8743 26.455C22.0055 26.455 23.0797 26.2312 24.0603 25.8243C25.0776 25.4032 25.9931 24.7847 26.7621 24.0156C27.5312 23.2466 28.1497 22.329 28.5708 21.3138C28.9757 20.3352 29.2015 19.259 29.2015 18.1278C29.2015 16.9966 28.9777 15.9224 28.5708 14.9417C28.1497 13.9245 27.5312 13.009 26.7621 12.2399C25.9931 11.4709 25.0755 10.8524 24.0603 10.4312C23.0817 10.0264 22.0055 9.80054 20.8743 9.80054C19.7431 9.80054 18.6689 10.0243 17.6882 10.4312C17.6007 10.4679 17.5133 10.5065 17.4278 10.5452C17.0942 10.0203 16.6913 9.54419 16.2295 9.13118C16.4818 9.00098 16.7402 8.88094 17.0026 8.77108C18.2009 8.27262 19.5071 8 20.8763 8ZM19.7146 13.3121C19.7146 13.0639 19.8163 12.8401 19.9771 12.6773C20.1398 12.5146 20.3636 12.4149 20.6118 12.4149C20.86 12.4149 21.0838 12.5146 21.2466 12.6773C21.4093 12.8401 21.509 13.0639 21.509 13.3121V18.0362L25.0389 20.1297C25.2505 20.2559 25.3929 20.4573 25.4499 20.679C25.5068 20.9008 25.4804 21.1449 25.3542 21.3565V21.3586C25.2281 21.5702 25.0267 21.7126 24.8049 21.7695C24.5832 21.8265 24.339 21.8 24.1274 21.6739H24.1254L20.1764 19.3322C20.0401 19.2569 19.9282 19.1471 19.8468 19.0168C19.7634 18.8805 19.7146 18.7198 19.7146 18.5489V13.3121ZM11.4891 10.7913L14.4351 14.4331H12.606V16.37H10.3722V14.4331H8.54313L11.4891 10.7913Z" fill="white"/>
<path d="M11.4891 10.7913L14.4351 14.4331H12.606V16.37H10.3722V14.4331H8.54313L11.4891 10.7913Z" fill="white"/>
<g clip-path="url(#clip1_535_19734)">
<path fill-rule="evenodd" clip-rule="evenodd" d="M14.3335 14.0361L9.78809 17.0883V11.0303L14.3335 14.0361Z" fill="#CD7FAF"/>
</g>
</g>
<defs>
<clipPath id="clip0_535_19734">
<rect width="25" height="20.2515" fill="white" transform="translate(6 8)"/>
</clipPath>
<clipPath id="clip1_535_19734">
<rect width="4.54545" height="6.05798" fill="white" transform="translate(9.78809 11.0303)"/>
</clipPath>
</defs>
</svg>
