<svg width="37" height="37" viewBox="0 0 37 37" fill="none" xmlns="http://www.w3.org/2000/svg">
<rect width="37" height="37" fill="#CD7FAF"/>
<path d="M21.5 21.2L24.4 22.9L23.6 24.2L20 22V17H21.5V21.2ZM29 21C29 25.41 25.41 29 21 29C18.98 29 17.14 28.24 15.73 27H11C9.85 27 9 26.15 9 25V16C9 14.88 9.89 14.04 11 14V13.5C11 11.01 13.01 9 15.5 9C17.84 9 19.74 10.79 19.96 13.08C20.3 13.03 20.65 13 21 13C25.41 13 29 16.59 29 21ZM13 14H18V13.26C17.88 11.99 16.8 11 15.5 11C14.12 11 13 12.12 13 13.5V14ZM27 21C27 17.69 24.31 15 21 15C17.69 15 15 17.69 15 21C15 24.31 17.69 27 21 27C24.31 27 27 24.31 27 21Z" fill="white"/>
</svg>
