<svg width="129" height="129" viewBox="0 0 129 129" fill="none" xmlns="http://www.w3.org/2000/svg">
<circle opacity="0.4" cx="64.5" cy="64.5" r="64" fill="#DCDDDF"/>
<mask id="mask0_509_15378" style="mask-type:alpha" maskUnits="userSpaceOnUse" x="0" y="0" width="129" height="129">
<circle cx="64.5" cy="64.5" r="64" fill="#5482DB"/>
</mask>
<g mask="url(#mask0_509_15378)">
<path d="M24.5 40.5C24.5 36.0817 28.0817 32.5 32.5 32.5H96.5C100.918 32.5 104.5 36.0817 104.5 40.5V128.5H24.5V40.5Z" fill="white"/>
</g>
<path d="M79.0023 71.9905C78.075 70.3943 76.9695 67.3653 76.9695 62V60.8911C76.9695 53.9716 71.4183 48.301 64.5951 48.2503C64.5632 48.2502 64.5316 48.25 64.4997 48.25C61.1888 48.2543 58.0151 49.5737 55.677 51.9179C53.3388 54.2621 52.0276 57.4391 52.0317 60.75V62C52.0317 67.365 50.9256 70.3939 49.9979 71.9899C49.7763 72.3695 49.6587 72.8009 49.657 73.2404C49.6553 73.68 49.7695 74.1122 49.9881 74.4936C50.2068 74.8749 50.5221 75.1918 50.9023 75.4124C51.2825 75.633 51.7141 75.7495 52.1537 75.75H58.25C58.25 77.4076 58.9085 78.9973 60.0806 80.1694C61.2527 81.3415 62.8424 82 64.5 82C66.1576 82 67.7473 81.3415 68.9194 80.1694C70.0915 78.9973 70.75 77.4076 70.75 75.75H76.8463C77.2858 75.7495 77.7174 75.633 78.0976 75.4125C78.4777 75.192 78.793 74.8751 79.0117 74.4938C79.2303 74.1126 79.3445 73.6804 79.3429 73.2409C79.3412 72.8014 79.2238 72.3701 79.0023 71.9905ZM64.5 79.5C63.5058 79.4989 62.5526 79.1034 61.8496 78.4004C61.1466 77.6974 60.7511 76.7442 60.75 75.75H68.25C68.2489 76.7442 67.8534 77.6974 67.1504 78.4004C66.4474 79.1034 65.4942 79.4989 64.5 79.5Z" fill="#ACAEBE"/>
<rect opacity="0.56" x="41.5" y="88.5" width="45" height="6" rx="3" fill="#DCDDDF"/>
<rect opacity="0.56" x="32.5" y="99.5" width="63" height="6" rx="3" fill="#DCDDDF"/>
</svg>
