
<svg width="38" height="38" viewBox="0 0 38 38" fill="none" xmlns="http://www.w3.org/2000/svg">
<circle cx="19" cy="19" r="19" fill="#CD7FAF"/>
<g clip-path="url(#clip0_210_8187)">
<path d="M23.246 17.1527L18.477 13.9471C18.1045 13.6971 17.6638 13.5465 17.2036 13.512C16.7435 13.4775 16.2819 13.5605 15.8701 13.7518C15.4583 13.9431 15.1123 14.2352 14.8704 14.5956C14.6286 14.9561 14.5004 15.371 14.5 15.7942V22.2086C14.4993 22.6322 14.6268 23.0477 14.8684 23.4088C15.11 23.7699 15.4562 24.0625 15.8684 24.2539C16.2807 24.4454 16.7428 24.5282 17.2033 24.4932C17.6639 24.4582 18.1048 24.3067 18.477 24.0556L23.246 20.8501C23.5624 20.6372 23.8198 20.359 23.9971 20.038C24.1745 19.7171 24.2669 19.3623 24.2669 19.0025C24.2669 18.6427 24.1745 18.288 23.9971 17.967C23.8198 17.646 23.5624 17.3679 23.246 17.155V17.1527Z" fill="white"/>
</g>
<defs>
<clipPath id="clip0_210_8187">
<rect width="12" height="11" fill="white" transform="translate(13 13.5)"/>
</clipPath>
</defs>
</svg>
