<svg width="20" height="21" viewBox="0 0 20 21" fill="none" xmlns="http://www.w3.org/2000/svg">
<path d="M18.3334 10.8824C18.3334 6.29902 14.5834 2.54902 10.0001 2.54902C5.41675 2.54902 1.66675 6.29902 1.66675 10.8824C1.66675 15.4657 5.41675 19.2157 10.0001 19.2157C14.5834 19.2157 18.3334 15.4657 18.3334 10.8824ZM4.75008 6.79902L14.0834 16.1324C13.0001 17.049 11.5834 17.549 10.0001 17.549C6.33342 17.549 3.33341 14.549 3.33341 10.8824C3.33341 9.29902 3.83341 7.88235 4.75008 6.79902ZM16.6667 10.8824C16.6667 12.4657 16.1667 13.8824 15.2501 14.9657L5.91675 5.63235C7.00008 4.71569 8.41675 4.21569 10.0001 4.21569C13.6667 4.21569 16.6667 7.21569 16.6667 10.8824Z" fill="#B6B4BA"/>
</svg>
